<svg xmlns="http://www.w3.org/2000/svg" width="1200" height="420" viewBox="0 0 1200 420" role="img" aria-label="Khalandar Thameem — Software Developer, AI Agents and Automation"><defs><linearGradient id="bg" x2="1" y2="1"><stop stop-color="#09121f"/><stop offset="1" stop-color="#18253c"/></linearGradient><linearGradient id="accent"><stop stop-color="#66efcf"/><stop offset="1" stop-color="#7b9cff"/></linearGradient><pattern id="grid" width="40" height="40" patternUnits="userSpaceOnUse"><path d="M40 0H0V40" fill="none" stroke="#9aaccc" stroke-opacity=".08"/></pattern></defs><rect width="1200" height="420" rx="20" fill="url(#bg)"/><rect width="1200" height="420" rx="20" fill="url(#grid)"/><path d="M0 0H1200" stroke="url(#accent)" stroke-width="8"/><g font-family="Arial,Helvetica,sans-serif"><text x="64" y="74" fill="#66efcf" font-size="15" letter-spacing="4">DEVTH97 / BUILDING WITH INTENT</text><text x="60" y="153" fill="#f5f7fc" font-size="53" font-weight="700">Khalandar</text><text x="60" y="214" fill="#f5f7fc" font-size="53" font-weight="700">Thameem.</text><text x="64" y="265" fill="#bbcae0" font-size="22">Software Developer · AI Agents &amp; Automation</text><text x="64" y="322" fill="#8396b3" font-size="18">Ideas into apps. Workflows into systems.</text><rect x="64" y="352" width="50" height="3" fill="#66efcf"/><text x="130" y="359" fill="#9bb0ce" font-size="13" letter-spacing="2">PRACTICAL / OBSERVABLE / HUMAN-LED</text></g><g fill="none" stroke="url(#accent)" stroke-width="2"><path d="M800 210L930 95L1080 200L950 325Z" opacity=".5"/><path d="M800 210L1080 200M930 95L950 325M800 210L950 325L1080 200" opacity=".35"/><circle cx="800" cy="210" r="24"/><circle cx="930" cy="95" r="18"/><circle cx="1080" cy="200" r="24"/><circle cx="950" cy="325" r="18"/><circle cx="944" cy="208" r="52"/><circle cx="944" cy="208" r="68" opacity=".15"/></g><g fill="#66efcf"><circle cx="800" cy="210" r="5"/><circle cx="930" cy="95" r="5"/><circle cx="1080" cy="200" r="5"/><circle cx="950" cy="325" r="5"/></g><text x="944" y="215" text-anchor="middle" fill="#f5f7fc" font-family="monospace" font-size="23">&lt; / &gt;</text></svg>
